# xmcd
#
# Track frame offsets:
#	150
#	15361
#	28367
#	42274
#	55019
#	65060
#	78957
#	90369
#	103693
#	116754
#	127875
#	145882
#	163926
#	177714
#	189675
#	205867
#	219123
#	233428
#	246206
#	258130
#
# Disc length: 3631 seconds
#
# Revision: 2
# Processed by: cddbd v1.5PL3 Copyright (c) Steve Scherf et al.
# Submitted via: MusicManager 7.0.4.0 
#
DISCID=100e2d14
DTITLE=Gene Watson - Love In The Hot Afternoon and Paper Rosie
DYEAR=2002
DGENRE=Country
TTITLE0=Love In the Hot Afternoon
TTITLE1=Through The Eyes Of Love
TTITLE2=Bad Water
TTITLE3=Long Enough To Care
TTITLE4=Harvest Time
TTITLE5=Where Love Begins
TTITLE6=This Just Ain't No Good Day For Leavin'
TTITLE7=For The First Time
TTITLE8=You Could Know As Much About A Stranger
TTITLE9=This Is My Year For Mexico
TTITLE10=Paper Rosie
TTITLE11=You Gave Me A Mountain
TTITLE12=If The Shoe Fits, Wear It
TTITLE13=Tenessee Sunshine
TTITLE14=Desperation
TTITLE15=Till You Can Make It On Your Own
TTITLE16=Most Of All Why
TTITLE17=Just At Dawn
TTITLE18=Don't Look At Me (In That Tone Of Voice)
TTITLE19=I'd Settle For Just Crossing Her Mind
EXTD=Combination disk, HUX Records LTD
EXTT0=
EXTT1=
EXTT2=
EXTT3=
EXTT4=
EXTT5=
EXTT6=
EXTT7=
EXTT8=
EXTT9=
EXTT10=
EXTT11=
EXTT12=
EXTT13=
EXTT14=
EXTT15=
EXTT16=
EXTT17=
EXTT18=
EXTT19=
PLAYORDER=
